<svg width="24" height="32" viewBox="0 0 24 32" fill="none" xmlns="http://www.w3.org/2000/svg">
<path d="M9 16H7.5V0H9V16ZM16.665 2.356C14.8005 2.356 14.757 0.666667 12.591 0.666667C11.8005 0.666667 11.049 0.928 10.4985 1.22667V8C11.04 7.54133 11.913 7.14 12.597 7.14C14.6415 7.14 14.931 8.74667 16.7535 8.74667C17.931 8.74667 19.4985 7.95333 19.4985 7.95333V1.52133C19.5 1.52133 17.85 2.356 16.665 2.356ZM10.7595 15.268L10.6095 15.36L10.539 15.3773L10.4685 15.4547L10.476 15.4973L10.389 15.592C10.305 15.668 10.3935 15.716 10.4805 15.6827C10.605 15.6333 10.773 15.636 10.788 15.488L10.8705 15.4C10.9065 15.352 10.803 15.276 10.7595 15.268ZM10.8675 15.896C10.9605 16.0173 11.691 15.7227 11.574 15.74C11.799 15.64 11.604 15.6293 11.478 15.5707C11.4345 15.38 11.3985 15.0853 11.2665 14.9667L11.352 14.8773C11.145 14.612 10.9935 15.1987 10.9935 15.1987L11.103 15.1707L11.052 15.2907C11.139 15.4293 11.0715 15.512 11.0595 15.5853L10.9095 15.668C10.857 15.7267 11.1675 15.7347 11.1705 15.744C11.1795 15.7747 10.794 15.824 10.8675 15.896ZM13.5525 17.8387C13.4835 17.8387 13.1085 17.8693 13.1445 17.9293C13.3575 18.24 13.6275 17.8467 13.5525 17.8387ZM12 10.6667C11.49 10.6667 10.992 10.704 10.5 10.7587V12.636C11.1645 12.5307 11.847 12.468 12.5505 12.468C13.644 12.468 15.273 12.8667 15.648 13.0653C16.2135 13.3667 15.402 13.344 15.3105 13.5413C15.2445 13.6933 15.0855 13.8987 15.015 13.9813C14.892 14.1227 14.5365 14.0627 14.6055 13.8933C14.6775 13.716 15.0225 13.648 14.502 13.6053C13.9695 13.5627 13.821 13.2427 13.284 13.6413C13.125 13.7613 13.002 13.9453 12.9015 14.104L12.249 14.5267C12.1035 14.732 12.3315 15.0733 12.612 14.9213C12.6855 14.8813 13.5285 15.6093 13.4205 15.0227C13.35 14.6333 13.6545 14.3693 13.662 14.076C13.6665 13.8813 13.998 14.0053 13.908 14.108C13.7925 14.2373 13.6635 14.6773 13.968 14.6987C14.1 14.708 14.478 14.4533 14.5215 14.6427C14.4585 14.46 14.0955 15.0173 14.118 15.0093C13.989 15.0613 13.836 14.988 13.938 15.2333C14.0295 15.476 13.446 15.4467 13.344 15.496C13.299 15.5173 12.846 15.376 12.8535 15.4667C12.6975 15.3507 12.8985 15.0627 12.7665 15.016C12.636 15.196 12.696 15.5627 12.414 15.5627C12.1725 15.5627 11.838 15.8067 11.6895 15.956C11.589 16.0573 10.9605 16.284 10.893 16.276C11.253 16.3093 11.2365 16.544 11.2065 16.7427C11.133 17.2053 10.011 16.776 10.059 16.952C10.104 17.1187 9.9285 17.5773 9.891 17.724C9.8595 17.8573 10.374 17.9427 10.3455 18.0093C10.3485 18.0013 11.046 17.796 11.1135 17.7427L11.271 17.4293C11.4015 17.3507 11.5425 17.288 11.6895 17.2387L11.868 16.9627C11.928 16.9413 12.6435 16.844 12.6915 16.864C12.8715 16.9373 13.2045 17.2413 13.329 17.3787C13.374 17.4307 13.6005 17.504 13.6005 17.5787L13.5975 17.816C13.7205 18.0227 13.7535 17.388 13.6995 17.508C13.6995 17.3053 13.8675 17.5827 13.908 17.56L13.119 16.8627C12.8745 16.4973 13.7745 17.0573 13.8885 17.1253C14.0025 17.1933 14.232 17.796 14.532 17.66L14.661 17.416L15.1995 17.3213C14.772 17.5987 15.534 17.9627 15.4185 17.9133C15.6105 17.9933 15.723 17.852 15.843 17.8907C15.9105 17.9147 16.6365 17.9067 16.5195 17.804C16.704 17.8853 16.6185 18.6013 16.47 18.712C16.2255 18.892 15.0525 18.8173 14.79 18.6507C14.3565 18.372 14.4345 18.948 14.223 19.0267C13.812 19.1773 13.194 18.5333 12.762 18.512C12.972 18.54 12.78 18.0373 12.78 18.0027C12.615 17.82 11.556 18.0227 11.2785 18.056C10.7535 18.1173 10.209 18.112 9.81 18.4C9.528 18.6027 9.525 18.9333 9.237 19.0947C9.0525 19.1973 8.8485 19.164 8.691 19.2973C8.409 19.5347 8.088 19.8853 7.929 20.1987C7.863 20.3293 8.013 20.6427 7.977 20.8107C7.611 21.8413 8.0685 23.272 9.4755 23.4293C9.8175 23.4667 10.173 23.632 10.5165 23.54C10.794 23.4667 11.0355 23.3 11.331 23.2813C11.742 23.256 11.571 23.7947 12.1335 23.648C12.4095 23.576 12.5325 23.8147 12.5325 23.996C12.441 24.376 12.2415 24.5867 12.6285 24.8533C12.8925 25.036 13.1115 25.296 13.1595 25.6093C13.188 25.7853 13.3725 26.088 13.143 26.1933C12.9795 26.2667 12.861 26.684 12.861 26.8227C12.894 26.9827 13.26 27.2893 13.3695 27.424C13.527 27.6187 13.4115 27.8467 13.5405 28.0667C13.674 28.292 13.8015 28.464 13.8945 28.692C14.0145 29.0067 14.9385 28.6853 15.1545 28.6867C15.888 28.6907 16.2615 27.772 16.779 27.4893C17.067 27.3293 16.989 26.892 17.334 26.6667C17.658 26.4573 17.997 26.3333 18.027 25.948C18.0525 25.6147 17.745 24.9187 17.9145 24.6373C18.12 24.3013 20.2785 21.588 19.6335 21.452L18.7245 21.836C18.5475 21.8507 17.865 21.196 17.6895 21.0373C17.358 20.7427 17.2125 20.2187 16.9395 19.8587C16.7835 19.648 16.3035 19.2307 16.3035 18.9693C16.323 19.0173 16.5225 19.3187 16.617 19.2547L16.635 19.1067C16.6275 19.1867 17.1975 19.768 17.3235 19.8293C17.601 19.968 17.5965 20.3667 17.871 20.5533C18.396 20.912 18.252 21.928 19.0185 21.3107C19.5345 20.8973 20.538 20.1147 20.271 19.4C20.13 19.0213 19.4805 19.2987 19.278 19.4333C19.065 19.3333 18.282 18.576 18.591 18.4773C18.7425 18.428 19.077 18.8267 19.1955 18.8867L19.7685 18.88C19.932 19.1853 21.012 18.5667 21.2685 18.6547C21.438 18.712 21.5685 18.836 21.627 18.9907C21.807 19.4813 21.984 20.4093 21.984 21.3293C21.984 26.2333 17.5125 30.2093 11.994 30.2093C9.1545 30.2093 6.594 29.1547 4.776 27.4653C4.5585 27.264 4.398 26.7867 4.755 26.592L5.115 26.5093C5.397 26.296 4.8495 25.432 5.0685 25.2933C5.7405 24.8653 5.4195 24.3413 5.007 23.908C4.8315 23.724 3.87 22.8413 3.7605 22.9987C3.843 22.7573 3.5865 22.1747 3.432 21.944C3.1695 21.5573 2.8305 21.3213 2.6925 20.896C2.637 20.728 2.637 20.2133 2.526 20.0947C2.4795 20.0467 2.133 19.916 2.148 19.8453C2.5815 17.552 4.002 15.6467 6 14.34V12.1053C2.4165 13.9507 0 17.388 0 21.3333C0 27.224 5.3715 32 12 32C18.627 32 24 27.224 24 21.3333C24 15.4427 18.627 10.6667 12 10.6667ZM16.563 17.1587C16.425 17.1253 15.72 16.9347 15.6915 17.1813C15.6915 17.328 15.0195 17.1827 15.1245 17.0267C15.198 16.9227 15.174 16.6867 15.309 16.532C15.4995 16.308 15.684 16.4293 15.6915 16.56C15.6915 16.9067 16.086 16.232 16.305 16.2093C16.3875 16.2013 16.2 16.3573 16.2 16.3573C16.2315 16.5827 16.419 16.7067 16.7745 16.8213C17.205 16.9573 16.8105 17.22 16.563 17.1587Z" fill="#00B956"/>
</svg>
