<svg width="22" height="24" viewBox="0 0 22 24" fill="none" xmlns="http://www.w3.org/2000/svg">
<path d="M8 21H6V0H8V21ZM18.968 3.533C16.254 3.533 16.193 1 13.042 1C11.892 1 10.8 1.393 10 1.84V12C10.789 11.312 12.058 10.711 13.053 10.711C16.029 10.711 16.447 13.121 19.099 13.121C20.812 13.121 22 11.932 22 11.932V2.282C22 2.282 20.691 3.533 18.968 3.533ZM10 18.292V20.126C10.644 20.255 11.177 20.429 11.496 20.654C11.769 20.846 11.77 21.152 11.496 21.344C10.002 22.397 3.998 22.398 2.503 21.344C2.231 21.153 2.232 20.845 2.503 20.654C2.822 20.429 3.355 20.255 4 20.126V18.293C1.637 18.774 0 19.804 0 21C0 22.657 3.134 24 7 24C10.866 24 14 22.657 14 21C14 19.804 12.363 18.774 10 18.292Z" fill="#AF17F7"/>
</svg>
